<svg xmlns="http://www.w3.org/2000/svg" viewBox="0 0 425.64 111.63"><defs><style>.cls-1{fill:orange;}.cls-2{fill:#fff;}</style></defs><g id="Layer_2" data-name="Layer 2"><g id="Layer_1-2" data-name="Layer 1"><path class="cls-1" d="M39.31,132.13H18.64V46.71L5.28,51.77v-22l16.38-7.4H39.31Z" transform="translate(-5.28 -22.41)"/><path class="cls-1" d="M77.57,132.13H56.89V46.71L43.53,51.77v-22l16.38-7.4H77.57Z" transform="translate(-5.28 -22.41)"/><path class="cls-1" d="M102.58,129.38a29.11,29.11,0,0,1-11.32-11.32,40.38,40.38,0,0,1-5-17.62v-.08H107v.08q.6,6,3.7,9.39a10.45,10.45,0,0,0,8.07,3.36c3.62,0,6.43-1.18,8.41-3.55s3-5.71,3-10V90.4q0-6.5-2.68-10A8.91,8.91,0,0,0,120,76.89a12.62,12.62,0,0,0-7.59,2.27,11.61,11.61,0,0,0-4.33,6.34H88.73V22.41h58.93V42.33H109.4v19.4a16.32,16.32,0,0,1,6.38-3.59,25.73,25.73,0,0,1,8-1.32,26.3,26.3,0,0,1,14.6,3.93,24.44,24.44,0,0,1,9.24,11.46q3.18,7.56,3.17,18.19v9.21q0,10.64-3.81,18.18A26.28,26.28,0,0,1,136,129.3q-7.25,4-17.51,4A32.34,32.34,0,0,1,102.58,129.38Z" transform="translate(-5.28 -22.41)"/><path class="cls-2" d="M157.62,22.57h20.79V132.9H157.62Zm27.17,107.94a20.76,20.76,0,0,1-7.44-10l1.06-18a14.63,14.63,0,0,0,1.37,6.6,9.5,9.5,0,0,0,4,4.17,13,13,0,0,0,6.34,1.44q5.84,0,9.07-3.87T202.39,100V87.45q0-7.22-3.22-11.2a11,11,0,0,0-9.07-4,12.68,12.68,0,0,0-6.34,1.48,9.68,9.68,0,0,0-4,4.29,15.51,15.51,0,0,0-1.37,6.83l-1.59-17.46a26.54,26.54,0,0,1,8.39-10.66A19.17,19.17,0,0,1,196.7,53a23.62,23.62,0,0,1,23.37,15.78q3.12,7.74,3.11,18.59V100q0,10.77-3.11,18.4A23.71,23.71,0,0,1,196.7,134,20.17,20.17,0,0,1,184.79,130.51Z" transform="translate(-5.28 -22.41)"/><path class="cls-2" d="M231.41,128q-6.25-6-6.26-18.32,0-11.69,7-17.53t21.06-5.84H273L274,102.17H253.3q-4.71,0-7.06,1.86a6.78,6.78,0,0,0-2.35,5.65,6.3,6.3,0,0,0,3,5.73q3,1.86,9,1.86,8.34,0,12.4-1.9c2.71-1.26,4.06-3.24,4.06-5.92l1.59,11.46a10.73,10.73,0,0,1-3.9,7.21,22.78,22.78,0,0,1-8.65,4.44,40.14,40.14,0,0,1-11,1.48Q237.66,134,231.41,128Zm40.86-45q0-5.46-3.64-8.42t-10.32-3A27.49,27.49,0,0,0,249.58,73a25.64,25.64,0,0,0-7.66,4L229,64.38A31,31,0,0,1,241.46,56a47.11,47.11,0,0,1,17.15-3q10.32,0,17.61,3.45a24.76,24.76,0,0,1,11.11,10,30.8,30.8,0,0,1,3.83,15.82V132.9H272.27Z" transform="translate(-5.28 -22.41)"/><path class="cls-2" d="M314.83,132.78a62.32,62.32,0,0,1-12.52-3.68A45.82,45.82,0,0,1,292,123.26l12.83-16a50.16,50.16,0,0,0,11.91,5.62,39.33,39.33,0,0,0,11.84,2q7.28,0,11.3-1.63c2.68-1.09,4-2.59,4-4.52a4.8,4.8,0,0,0-1.74-4,10.76,10.76,0,0,0-4.48-1.93,73.63,73.63,0,0,0-7.66-1l-2.77-.3-2.85-.31-.64-.11c-.23,0-.44,0-.65,0A85.56,85.56,0,0,1,309,98.15a18.1,18.1,0,0,1-9-6.42Q296.31,87,296.32,78a22.31,22.31,0,0,1,14.79-22A46.49,46.49,0,0,1,328.57,53a59.67,59.67,0,0,1,11.95,1.21,61.44,61.44,0,0,1,11.42,3.49A55.14,55.14,0,0,1,362,63.17l-12.37,15.1a49.55,49.55,0,0,0-10.77-4.48,39.59,39.59,0,0,0-10.78-1.59,26.5,26.5,0,0,0-9.79,1.44c-2.32,1-3.49,2.3-3.49,4a3.41,3.41,0,0,0,1.86,3.07,13.68,13.68,0,0,0,4.63,1.6q2.78.48,8.08,1.1l1.37.15,1.36.15a2.87,2.87,0,0,0,.69.07,2.82,2.82,0,0,1,.68.08,95.14,95.14,0,0,1,14.95,2.73,19.44,19.44,0,0,1,9.82,6.68q4.07,5,4.06,14.72a23.19,23.19,0,0,1-15.48,23A48.64,48.64,0,0,1,328.57,134,73.92,73.92,0,0,1,314.83,132.78Z" transform="translate(-5.28 -22.41)"/><path class="cls-2" d="M380.12,129.9a28.28,28.28,0,0,1-12.33-12.06q-4.25-7.94-4.25-19.09V89.88q0-11.68,4.06-20a28.34,28.34,0,0,1,11.84-12.6Q387.21,53,398.22,53a30,30,0,0,1,17.68,5.16q7.35,5.16,11.19,15t3.83,23.72V102H377.05V88H412l-.23-1.82q-.83-6.84-4.28-10.55a12,12,0,0,0-9.22-3.72q-7.52,0-11.65,4.48T382.44,89v10q0,8,4.51,12.44t12.63,4.4a24.07,24.07,0,0,0,8.27-1.48,25,25,0,0,0,7.44-4.21l13.58,12.07A45.31,45.31,0,0,1,415.06,131,41.28,41.28,0,0,1,399.58,134Q388.21,134,380.12,129.9Z" transform="translate(-5.28 -22.41)"/></g></g></svg>